<?xml version="1.0" encoding="utf-8"?>
<!-- Generator: Adobe Illustrator 23.0.5, SVG Export Plug-In . SVG Version: 6.00 Build 0)  -->
<svg version="1.1" id="Layer_1" xmlns="http://www.w3.org/2000/svg" xmlns:xlink="http://www.w3.org/1999/xlink" x="0px" y="0px"
	 viewBox="0 0 498.7 74.3" style="enable-background:new 0 0 498.7 74.3;" xml:space="preserve">
<style type="text/css">
	.st0{fill:#16283A;}
	.st1{fill:#B89669;}
</style>
<path class="st0" d="M85.6,0.2H95l0.5,0.5v40.7c0.6,5.3,3.2,7.9,7.6,7.9h24.4l0.5,0.5v9.5l-0.5,0.5h-25.4c-5.3,0-10-2.6-14-7.9
	c-2-3.1-3-6.5-3-10.2v-41L85.6,0.2z"/>
<path class="st0" d="M219.2,0h10.2c0.3,0,6.5,12.3,18.5,36.8h0.3C260.2,12.3,266.3,0,266.7,0h10.7l0.5,0.5l-29.4,59.1h-0.8L218.5,1
	L219.2,0z"/>
<path class="st0" d="M471.7,0.1c14.9,0,22.4,5.7,27,17.1l-7.2,3.2l-1.9-0.7c-4.1-7.8-10.9-10.2-16.9-10.2c-5.2,0-14.3,3.6-14.3,8.2
	c0,9.5,38.9,5.9,38.9,24.2c0,9.3-9,17.8-24.7,17.8c-13.9,0-21.5-6.7-25.7-17.1l7.8-3.2l1.8,0.9c2.2,4.3,8,10,16.2,10
	c8.9,0,14.5-3.6,14.5-7.7c0-9.7-39-6.9-39-25C448.3,9.5,458.3,0.1,471.7,0.1z"/>
<path class="st0" d="M194.9,10.6l0.5-0.5V0.6l-0.5-0.5h-42l-0.5,0.5v41c0,3.7,1,7.1,3,10.2c4,5.3,8.7,7.9,14,7.9h25.4l0.5-0.5v-9.5
	l-0.5-0.5h-24.4c-4.5,0-7-2.6-7.6-7.9v-8.1h21.7l0.5-0.5v-9.5l-0.5-0.5h-21.7V10.6H194.9z"/>
<path class="st0" d="M422,24.7c0-13.5-11-24.5-24.5-24.5h-24L373,0.6v58.5l0.5,0.5h9.7l0.5-0.5v-10h13.8c2.6,0,5.1-0.5,7.4-1.3
	c3.9,7.8,6,11.7,6.2,11.7h10.2l0.8-1l-8-16C418.9,38.2,422,31.8,422,24.7z M383.7,37.9V11.5h13.8c7.3,0,13.2,5.9,13.2,13.2
	c0,7.3-5.9,13.2-13.2,13.2H383.7z"/>
<path class="st0" d="M345.9,10.6l0.5-0.5V0.6l-0.5-0.5h-42l-0.5,0.5v41c0,3.7,1,7.1,3,10.2c4,5.3,8.7,7.9,14,7.9h25.4l0.5-0.5v-9.5
	l-0.5-0.5h-24.4c-4.5,0-7-2.6-7.6-7.9v-8.1h21.7l0.5-0.5v-9.5l-0.5-0.5h-21.7V10.6H345.9z"/>
<path class="st1" d="M38,61.5V74l0.3,0.3L48.5,68l10.1,6.2L59,74V44.5C54.8,52.9,47.1,59.1,38,61.5z"/>
<path class="st0" d="M48.8,35.1c-2.3,8.4-9.9,14.5-19,14.5c-10.9,0-19.7-8.8-19.7-19.7c0-10.9,8.8-19.7,19.7-19.7
	c9.1,0,16.7,6.2,19,14.5H58l1-1.3C56,10.1,44.1,0.1,29.9,0.1C13.4,0.1,0,13.4,0,29.9c0,16.5,13.4,29.9,29.9,29.9
	c14.3,0,26.2-10,29.1-23.4l-1-1.3H48.8z"/>
</svg>
