<?xml version="1.0" encoding="utf-8"?>
<!-- Generator: Adobe Illustrator 23.0.5, SVG Export Plug-In . SVG Version: 6.00 Build 0)  -->
<svg version="1.1" id="Layer_1" xmlns="http://www.w3.org/2000/svg" xmlns:xlink="http://www.w3.org/1999/xlink" x="0px" y="0px"
	 viewBox="0 0 93.5 117.6" style="enable-background:new 0 0 93.5 117.6;" xml:space="preserve">
<style type="text/css">
	.st0{fill:#16283A;}
	.st1{fill:#B89669;}
</style>
<path class="st0" d="M60.3,97.4v19.8l0.5,0.5l16.1-9.9l16.1,9.9l0.5-0.5V70.5C86.8,83.8,74.6,93.6,60.3,97.4z"/>
<path class="st1" d="M77.4,55.6c-3.6,13.2-15.7,23-30.1,23c-17.2,0-31.2-14-31.2-31.2c0-17.2,14-31.2,31.2-31.2
	c14.4,0,26.5,9.8,30.1,23h14.4l1.6-2.1C88.8,15.8,69.9,0,47.3,0C21.2,0,0,21.2,0,47.3c0,26.1,21.2,47.3,47.3,47.3
	c22.6,0,41.5-15.8,46.2-37l-1.6-2.1H77.4z"/>
</svg>
